# xmcd
#
# Track frame offsets:
#	150
#	14414
#	35866
#	55263
#	72060
#	98408
#	125496
#	137762
#	147249
#	171538
#	192891
#	209305
#	224076
#	246445
#	267197
#	288148
#	304357
#
# Disc length: 4414 seconds
#
# Revision: 0
# Processed by: cddbd v1.5.1PL0 Copyright (c) Steve Scherf et al.
# Submitted via: audiograbber 1.81.03
#
DISCID=0f113c11
DTITLE=Various Artist - Essex Delta Blues
DYEAR=2004
DGENRE=Blues
TTITLE0=The NightFlies - Delta Moon
TTITLE1=The Heaters - T-Bone Shuffle
TTITLE2=Johnny Gunner and The Raiders - Shake Your Hips
TTITLE3=Los Tres Armadillos - Here In The Dark
TTITLE4=Andy Robinson Band - Little Wing
TTITLE5=Cying Out Loud - Alone In The Dark
TTITLE6=Hair Of The Dog - Further On Up The Road
TTITLE7=The Jives - Down To The Doctors
TTITLE8=The Harvey Williams Band - Ain't No Midnight Train
TTITLE9=The Rockin' Armadillos - Honeytrap
TTITLE10=Gator Blues - No Prince Charming
TTITLE11=Temperton Bones - If You Ain't Got That Swing
TTITLE12=The Richard Dobney Band - How I Feel Today
TTITLE13=The Swampcats - Weep And Moan
TTITLE14=Roy Mette - This Life Will Be The Death Of Me
TTITLE15=Terry Wisbey's Texas Thunder - Bad Bad Woman
TTITLE16=Bad Town Blues - The Butcher's Daughter
EXTD=
EXTT0=
EXTT1=
EXTT2=
EXTT3=
EXTT4=
EXTT5=
EXTT6=
EXTT7=
EXTT8=
EXTT9=
EXTT10=
EXTT11=
EXTT12=
EXTT13=
EXTT14=
EXTT15=
EXTT16=
PLAYORDER=
